<svg width="287" height="56" viewBox="0 0 287 56" fill="none" xmlns="http://www.w3.org/2000/svg">
<path d="M105.078 7.32812V14.7969H104.5C103.802 12.7552 102.755 11.2031 101.359 10.1406C99.9635 9.07812 98.4375 8.54688 96.7812 8.54688C95.1979 8.54688 93.8802 8.99479 92.8281 9.89062C91.776 10.776 91.0312 12.0156 90.5938 13.6094C90.1562 15.2031 89.9375 16.8385 89.9375 18.5156C89.9375 20.5469 90.1771 22.3281 90.6562 23.8594C91.1354 25.3906 91.9062 26.5156 92.9688 27.2344C94.0417 27.9531 95.3125 28.3125 96.7812 28.3125C97.2917 28.3125 97.8125 28.2604 98.3438 28.1562C98.8854 28.0417 99.4375 27.8802 100 27.6719V23.2656C100 22.4323 99.9427 21.8958 99.8281 21.6562C99.7135 21.4062 99.474 21.1823 99.1094 20.9844C98.7552 20.7865 98.3229 20.6875 97.8125 20.6875H97.2656V20.1094H107.562V20.6875C106.781 20.7396 106.234 20.849 105.922 21.0156C105.62 21.1719 105.385 21.4375 105.219 21.8125C105.125 22.0104 105.078 22.4948 105.078 23.2656V27.6719C103.724 28.276 102.312 28.7292 100.844 29.0312C99.3854 29.3438 97.8698 29.5 96.2969 29.5C94.2865 29.5 92.6146 29.2292 91.2812 28.6875C89.9583 28.1354 88.7865 27.4167 87.7656 26.5312C86.7552 25.6354 85.9635 24.6302 85.3906 23.5156C84.6615 22.0781 84.2969 20.4688 84.2969 18.6875C84.2969 15.5 85.4167 12.8073 87.6562 10.6094C89.8958 8.41146 92.7135 7.3125 96.1094 7.3125C97.1615 7.3125 98.1094 7.39583 98.9531 7.5625C99.4115 7.64583 100.151 7.88542 101.172 8.28125C102.203 8.66667 102.812 8.85938 103 8.85938C103.292 8.85938 103.562 8.75521 103.812 8.54688C104.062 8.32812 104.292 7.92188 104.5 7.32812H105.078ZM123.779 22.9688H116.294L115.404 25.0312C115.112 25.7188 114.966 26.2865 114.966 26.7344C114.966 27.3281 115.206 27.7656 115.685 28.0469C115.966 28.2135 116.659 28.3385 117.763 28.4219V29H110.716V28.4219C111.477 28.3073 112.102 27.9948 112.591 27.4844C113.081 26.9635 113.685 25.8958 114.404 24.2812L121.982 7.375H122.279L129.919 24.75C130.649 26.3958 131.247 27.4323 131.716 27.8594C132.07 28.1823 132.57 28.3698 133.216 28.4219V29H122.966V28.4219H123.388C124.211 28.4219 124.789 28.3073 125.122 28.0781C125.352 27.9115 125.466 27.6719 125.466 27.3594C125.466 27.1719 125.435 26.9792 125.372 26.7812C125.352 26.6875 125.195 26.2969 124.904 25.6094L123.779 22.9688ZM123.247 21.8125L120.091 14.5156L116.841 21.8125H123.247ZM144.651 19.3438V25.2812C144.651 26.4271 144.719 27.151 144.854 27.4531C145 27.7448 145.25 27.9792 145.604 28.1562C145.959 28.3333 146.62 28.4219 147.589 28.4219V29H136.745V28.4219C137.724 28.4219 138.386 28.3333 138.729 28.1562C139.084 27.9688 139.328 27.7292 139.464 27.4375C139.61 27.1458 139.682 26.4271 139.682 25.2812V11.5312C139.682 10.3854 139.61 9.66667 139.464 9.375C139.328 9.07292 139.084 8.83333 138.729 8.65625C138.375 8.47917 137.714 8.39062 136.745 8.39062V7.8125H146.589C149.151 7.8125 151.026 7.98958 152.214 8.34375C153.401 8.69792 154.37 9.35417 155.12 10.3125C155.87 11.2604 156.245 12.375 156.245 13.6562C156.245 15.2188 155.682 16.5104 154.557 17.5312C153.839 18.1771 152.834 18.6615 151.542 18.9844L156.636 26.1562C157.302 27.0833 157.776 27.6615 158.057 27.8906C158.485 28.2135 158.979 28.3906 159.542 28.4219V29H152.87L146.042 19.3438H144.651ZM144.651 8.95312V18.2344H145.542C146.99 18.2344 148.073 18.1042 148.792 17.8438C149.511 17.5729 150.073 17.0938 150.479 16.4062C150.896 15.7083 151.104 14.8021 151.104 13.6875C151.104 12.0729 150.724 10.8802 149.964 10.1094C149.214 9.33854 148 8.95312 146.323 8.95312H144.651ZM177.086 21.7812L182.836 7.8125H191.461V8.39062H190.774C190.149 8.39062 189.649 8.5 189.274 8.71875C189.013 8.86458 188.805 9.10938 188.649 9.45312C188.534 9.70312 188.477 10.3542 188.477 11.4062V25.375C188.477 26.4583 188.534 27.1354 188.649 27.4062C188.763 27.6771 188.998 27.9167 189.352 28.125C189.706 28.3229 190.18 28.4219 190.774 28.4219H191.461V29H180.399V28.4219H181.086C181.711 28.4219 182.211 28.3125 182.586 28.0938C182.847 27.9479 183.055 27.6979 183.211 27.3438C183.326 27.0938 183.383 26.4375 183.383 25.375V9.67188L175.258 29H174.883L166.633 9.8125V24.7344C166.633 25.776 166.659 26.4167 166.711 26.6562C166.847 27.1771 167.138 27.6042 167.586 27.9375C168.045 28.2604 168.758 28.4219 169.727 28.4219V29H162.477V28.4219H162.696C163.164 28.4323 163.602 28.3594 164.008 28.2031C164.414 28.0365 164.722 27.8177 164.93 27.5469C165.138 27.276 165.3 26.8958 165.414 26.4062C165.435 26.2917 165.446 25.7604 165.446 24.8125V11.4062C165.446 10.3333 165.388 9.66667 165.274 9.40625C165.159 9.13542 164.925 8.90104 164.571 8.70312C164.216 8.49479 163.743 8.39062 163.149 8.39062H162.477V7.8125H171.133L177.086 21.7812ZM203.334 9.03125V17.6562H203.756C205.099 17.6562 206.073 17.2344 206.677 16.3906C207.282 15.5469 207.667 14.3021 207.834 12.6562H208.427V23.75H207.834C207.709 22.5417 207.443 21.5521 207.037 20.7812C206.641 20.0104 206.177 19.4948 205.646 19.2344C205.115 18.9635 204.344 18.8281 203.334 18.8281V24.7969C203.334 25.9635 203.381 26.6771 203.474 26.9375C203.579 27.1979 203.766 27.4115 204.037 27.5781C204.308 27.7448 204.745 27.8281 205.349 27.8281H206.615C208.594 27.8281 210.177 27.3698 211.365 26.4531C212.563 25.5365 213.422 24.1406 213.943 22.2656H214.521L213.568 29H195.256V28.4219H195.959C196.573 28.4219 197.068 28.3125 197.443 28.0938C197.714 27.9479 197.922 27.6979 198.068 27.3438C198.183 27.0938 198.24 26.4375 198.24 25.375V11.4375C198.24 10.4792 198.214 9.89062 198.162 9.67188C198.058 9.30729 197.865 9.02604 197.584 8.82812C197.188 8.53646 196.646 8.39062 195.959 8.39062H195.256V7.8125H212.99V14.0781H212.396C212.094 12.5469 211.667 11.4479 211.115 10.7812C210.573 10.1146 209.802 9.625 208.802 9.3125C208.219 9.125 207.125 9.03125 205.521 9.03125H203.334ZM226.488 7.8125L236.941 20.9531V11.8438C236.941 10.5729 236.758 9.71354 236.394 9.26562C235.894 8.66146 235.055 8.36979 233.878 8.39062V7.8125H240.878V8.39062C239.982 8.50521 239.378 8.65625 239.066 8.84375C238.764 9.02083 238.524 9.31771 238.347 9.73438C238.18 10.1406 238.097 10.8438 238.097 11.8438V29.4844H237.566L223.238 11.8438V25.3125C223.238 26.5312 223.514 27.3542 224.066 27.7812C224.628 28.2083 225.269 28.4219 225.988 28.4219H226.488V29H218.972V28.4219C220.139 28.4115 220.951 28.1719 221.409 27.7031C221.868 27.2344 222.097 26.4375 222.097 25.3125V10.3594L221.644 9.79688C221.196 9.23438 220.8 8.86458 220.456 8.6875C220.113 8.51042 219.618 8.41146 218.972 8.39062V7.8125H226.488ZM264.391 7.8125V13.5469H263.829C263.495 12.224 263.126 11.276 262.719 10.7031C262.313 10.1198 261.756 9.65625 261.048 9.3125C260.652 9.125 259.959 9.03125 258.969 9.03125H257.391V25.375C257.391 26.4583 257.449 27.1354 257.563 27.4062C257.688 27.6771 257.923 27.9167 258.266 28.125C258.62 28.3229 259.1 28.4219 259.704 28.4219H260.407V29H249.313V28.4219H250.016C250.631 28.4219 251.126 28.3125 251.501 28.0938C251.771 27.9479 251.985 27.6979 252.141 27.3438C252.256 27.0938 252.313 26.4375 252.313 25.375V9.03125H250.782C249.355 9.03125 248.318 9.33333 247.673 9.9375C246.766 10.7812 246.193 11.9844 245.954 13.5469H245.36V7.8125H264.391ZM283.139 7.32812L283.311 14.3906H282.67C282.368 12.6198 281.623 11.1979 280.436 10.125C279.259 9.04167 277.982 8.5 276.607 8.5C275.545 8.5 274.701 8.78646 274.076 9.35938C273.462 9.92188 273.154 10.5729 273.154 11.3125C273.154 11.7812 273.264 12.1979 273.482 12.5625C273.785 13.0521 274.269 13.5365 274.936 14.0156C275.425 14.3594 276.555 14.9688 278.326 15.8438C280.805 17.0625 282.477 18.2135 283.342 19.2969C284.196 20.3802 284.623 21.6198 284.623 23.0156C284.623 24.7865 283.93 26.3125 282.545 27.5938C281.17 28.8646 279.42 29.5 277.295 29.5C276.628 29.5 275.998 29.4323 275.404 29.2969C274.811 29.1615 274.066 28.9062 273.17 28.5312C272.67 28.3229 272.259 28.2188 271.936 28.2188C271.665 28.2188 271.378 28.3229 271.076 28.5312C270.774 28.7396 270.529 29.0573 270.342 29.4844H269.764V21.4844H270.342C270.8 23.7344 271.68 25.4531 272.982 26.6406C274.295 27.8177 275.706 28.4062 277.217 28.4062C278.384 28.4062 279.311 28.0885 279.998 27.4531C280.696 26.8177 281.045 26.0781 281.045 25.2344C281.045 24.7344 280.91 24.25 280.639 23.7812C280.378 23.3125 279.977 22.8698 279.436 22.4531C278.894 22.026 277.936 21.474 276.561 20.7969C274.634 19.849 273.248 19.0417 272.404 18.375C271.561 17.7083 270.91 16.9635 270.451 16.1406C270.003 15.3177 269.779 14.4115 269.779 13.4219C269.779 11.7344 270.399 10.2969 271.639 9.10938C272.878 7.92188 274.441 7.32812 276.326 7.32812C277.014 7.32812 277.68 7.41146 278.326 7.57812C278.816 7.70312 279.41 7.9375 280.107 8.28125C280.816 8.61458 281.311 8.78125 281.592 8.78125C281.863 8.78125 282.076 8.69792 282.232 8.53125C282.389 8.36458 282.535 7.96354 282.67 7.32812H283.139Z" fill="#F27052"/>
<path d="M16.448 47.64C14.6133 47.64 12.8 47.4267 11.008 47C9.25867 46.5733 7.70133 45.9333 6.336 45.08C5.86667 44.7387 5.54667 44.248 5.376 43.608C5.20533 42.9253 5.12 42.1147 5.12 41.176C5.12 39.512 5.44 37.5493 6.08 35.288C6.72 32.984 7.53067 30.616 8.512 28.184C9.49333 25.752 10.5173 23.448 11.584 21.272C12.6507 19.096 13.6107 17.304 14.464 15.896C15.2747 14.6587 16.2773 13.8053 17.472 13.336C18.6667 12.824 19.9253 12.568 21.248 12.568C24.1067 12.568 25.3227 12.824 24.896 13.336C24 14.36 23.0613 15.704 22.08 17.368C21.0987 19.032 20.1813 20.7387 19.328 22.488C18.4747 24.1947 17.7493 25.688 17.152 26.968C15.744 29.9547 14.5067 32.8773 13.44 35.736C12.3733 38.552 11.648 40.8347 11.264 42.584C11.1787 42.9253 11.136 43.2027 11.136 43.416C11.136 43.8853 11.2853 44.312 11.584 44.696C11.8827 45.0373 12.416 45.272 13.184 45.4C13.4827 45.4427 13.76 45.4853 14.016 45.528C14.3147 45.528 14.6133 45.528 14.912 45.528C16.5333 45.528 18.0267 45.1227 19.392 44.312C20.7573 43.5013 21.6107 42.328 21.952 40.792C22.08 40.28 22.1227 39.7253 22.08 39.128C22.08 38.104 21.9307 36.9733 21.632 35.736C21.3333 34.4987 20.8853 33.3467 20.288 32.28C19.7333 31.2133 19.008 30.424 18.112 29.912C17.6853 29.656 17.472 29.3573 17.472 29.016C17.472 28.632 17.7067 28.3973 18.176 28.312C19.2 28.312 20.2453 27.9067 21.312 27.096C22.4213 26.2853 23.424 25.2187 24.32 23.896C25.2587 22.5733 26.0053 21.144 26.56 19.608C27.1573 18.0293 27.456 16.5147 27.456 15.064C27.456 13.016 26.8373 11.608 25.6 10.84C24.4053 10.0293 22.976 9.624 21.312 9.624C19.904 9.624 18.4533 9.83733 16.96 10.264C15.4667 10.648 14.1653 11.096 13.056 11.608C10.6667 12.7173 8.66133 14.1467 7.04 15.896C5.46133 17.6453 4.544 19.352 4.288 21.016C4.07467 20.9307 3.66933 20.824 3.072 20.696C2.47467 20.568 1.87733 20.312 1.28 19.928C0.725333 19.544 0.405333 18.9893 0.32 18.264C0.192 16.7707 0.554667 15.448 1.408 14.296C2.304 13.1013 3.52 12.0987 5.056 11.288C6.63467 10.4347 8.36267 9.73067 10.24 9.176C12.16 8.62133 14.1013 8.216 16.064 7.96C18.0267 7.704 19.8613 7.576 21.568 7.576C22.2933 7.576 22.976 7.59733 23.616 7.64C24.256 7.68267 24.832 7.74666 25.344 7.832C28.7573 8.38666 31.2107 9.496 32.704 11.16C34.1973 12.7813 34.944 14.5947 34.944 16.6C34.944 18.392 34.4107 20.1627 33.344 21.912C32.2773 23.6187 30.8053 25.0693 28.928 26.264C27.0933 27.416 24.9813 28.056 22.592 28.184C25.0667 28.7387 26.9653 29.9333 28.288 31.768C29.6533 33.56 30.336 35.5013 30.336 37.592C30.336 39.3413 29.824 41.0267 28.8 42.648C27.776 44.2693 26.1333 45.5067 23.872 46.36C21.6533 47.2133 19.1787 47.64 16.448 47.64ZM64.5555 47.96C63.1902 47.96 62.0168 47.4267 61.0355 46.36C60.0542 45.2933 59.2435 43.9493 58.6035 42.328C57.9635 40.7067 57.4302 39.0213 57.0035 37.272C56.6195 35.5227 56.3208 33.944 56.1075 32.536C55.9368 31.0853 55.8088 30.04 55.7235 29.4L55.6595 29.208C55.1902 29.2933 54.7635 29.3573 54.3795 29.4C53.9955 29.4 53.6542 29.4 53.3555 29.4H52.9715C51.9475 31.448 50.9875 33.4533 50.0915 35.416C49.2382 37.3787 48.5342 39.192 47.9795 40.856C47.4675 42.52 47.2115 43.9067 47.2115 45.016C47.2115 45.8693 47.4035 46.5307 47.7875 47C47.8728 47.1707 47.9155 47.2987 47.9155 47.384C47.9155 47.512 47.8515 47.5973 47.7235 47.64C47.5955 47.7253 47.4248 47.704 47.2115 47.576C46.8275 47.4053 46.3368 47.2773 45.7395 47.192C45.1422 47.1067 44.6088 46.9787 44.1395 46.808C43.1582 46.4667 42.4328 45.8693 41.9635 45.016C41.5368 44.12 41.3235 43.0533 41.3235 41.816C41.3235 40.3653 41.5582 38.7227 42.0275 36.888C42.5395 35.0533 43.1795 33.176 43.9475 31.256C44.7155 29.2933 45.5262 27.416 46.3795 25.624C47.2755 23.832 48.1075 22.2107 48.8755 20.76C49.6435 19.3093 50.2622 18.1573 50.7315 17.304C50.8595 17.0907 51.0942 16.664 51.4355 16.024C51.8195 15.3413 52.1822 14.6587 52.5235 13.976C52.8648 13.2507 53.0355 12.696 53.0355 12.312C53.0355 11.8853 52.8008 11.8 52.3315 12.056C51.6488 12.3547 50.8382 12.9307 49.8995 13.784C48.9608 14.6373 47.9368 15.5973 46.8275 16.664C45.7182 17.688 44.5662 18.712 43.3715 19.736C42.1768 20.7173 40.9608 21.5493 39.7235 22.232C38.4862 22.872 37.2488 23.192 36.0115 23.192C35.3288 23.192 34.6675 23.064 34.0275 22.808C33.3022 22.552 32.9395 21.912 32.9395 20.888C32.9395 19.9067 33.2168 18.7547 33.7715 17.432C34.3688 16.0667 35.0942 14.7653 35.9475 13.528C36.1608 13.1867 36.4168 12.952 36.7155 12.824C37.0142 12.6533 37.2488 12.568 37.4195 12.568C37.7608 12.568 37.9315 12.7173 37.9315 13.016C37.9315 13.144 37.8675 13.3147 37.7395 13.528C37.6968 13.6987 37.6328 13.848 37.5475 13.976C37.5048 14.104 37.4835 14.2107 37.4835 14.296C37.4835 14.5947 37.6328 14.808 37.9315 14.936C38.2302 15.0213 38.5502 15.064 38.8915 15.064C39.7875 15.064 40.9608 14.7653 42.4115 14.168C43.8622 13.5707 45.4195 12.8453 47.0835 11.992C48.7902 11.096 50.4755 10.2213 52.1395 9.368C53.8462 8.51466 55.4248 7.85333 56.8755 7.384C58.3262 6.872 59.5208 6.70133 60.4595 6.872C61.0568 7 61.5902 7.36267 62.0595 7.96C62.5288 8.55733 62.9128 9.15467 63.2115 9.752C63.3395 10.0507 63.4035 10.3707 63.4035 10.712C63.4035 11.1387 63.2968 11.544 63.0835 11.928C62.9128 12.312 62.6568 12.7173 62.3155 13.144C61.7608 13.9547 61.0355 15.1067 60.1395 16.6C59.2435 18.0507 58.2408 19.7147 57.1315 21.592C56.0648 23.4693 54.9982 25.432 53.9315 27.48C55.8942 27.096 57.6648 26.328 59.2435 25.176C60.8222 24.024 62.2302 22.68 63.4675 21.144C64.7048 19.608 65.8355 18.0507 66.8595 16.472C67.8835 14.8933 68.8435 13.464 69.7395 12.184C70.6782 10.904 71.5955 9.96533 72.4915 9.368C73.0462 8.94133 73.7288 8.728 74.5395 8.728C75.1795 8.728 75.7555 8.96266 76.2675 9.432C76.8222 9.85867 77.0995 10.5627 77.0995 11.544C77.0995 12.8667 76.7155 14.1893 75.9475 15.512C75.1795 16.792 74.1768 18.0507 72.9395 19.288C71.7022 20.4827 70.3582 21.6133 68.9075 22.68C67.4995 23.704 66.1128 24.6213 64.7475 25.432C63.3822 26.2427 62.2088 26.904 61.2275 27.416C61.2702 27.6293 61.5048 28.3333 61.9315 29.528C62.3582 30.7227 62.9128 32.1307 63.5955 33.752C64.3208 35.3307 65.0888 36.888 65.8995 38.424C66.7102 39.96 67.5208 41.2187 68.3315 42.2C69.1422 43.1387 69.8888 43.544 70.5715 43.416C70.7422 43.3733 70.6782 43.5867 70.3795 44.056C70.1235 44.4827 69.6968 45.016 69.0995 45.656C68.5022 46.2533 67.7982 46.7867 66.9875 47.256C66.2195 47.7253 65.4088 47.96 64.5555 47.96Z" fill="#533537"/>
<path d="M90.024 37.786V41.98H94.596V43.33H90.024V47.65H95.136V49H88.386V36.436H95.136V37.786H90.024ZM111.781 36.544V49H110.143V39.712L106.003 49H104.851L100.693 39.694V49H99.0545V36.544H100.819L105.427 46.84L110.035 36.544H111.781ZM122.28 42.538C122.736 42.61 123.15 42.796 123.522 43.096C123.906 43.396 124.206 43.768 124.422 44.212C124.65 44.656 124.764 45.13 124.764 45.634C124.764 46.27 124.602 46.846 124.278 47.362C123.954 47.866 123.48 48.268 122.856 48.568C122.244 48.856 121.518 49 120.678 49H115.998V36.454H120.498C121.35 36.454 122.076 36.598 122.676 36.886C123.276 37.162 123.726 37.54 124.026 38.02C124.326 38.5 124.476 39.04 124.476 39.64C124.476 40.384 124.272 41.002 123.864 41.494C123.468 41.974 122.94 42.322 122.28 42.538ZM117.636 41.872H120.39C121.158 41.872 121.752 41.692 122.172 41.332C122.592 40.972 122.802 40.474 122.802 39.838C122.802 39.202 122.592 38.704 122.172 38.344C121.752 37.984 121.146 37.804 120.354 37.804H117.636V41.872ZM120.534 47.65C121.35 47.65 121.986 47.458 122.442 47.074C122.898 46.69 123.126 46.156 123.126 45.472C123.126 44.776 122.886 44.23 122.406 43.834C121.926 43.426 121.284 43.222 120.48 43.222H117.636V47.65H120.534ZM135.083 49L132.095 43.87H130.115V49H128.477V36.454H132.527C133.475 36.454 134.273 36.616 134.921 36.94C135.581 37.264 136.073 37.702 136.397 38.254C136.721 38.806 136.883 39.436 136.883 40.144C136.883 41.008 136.631 41.77 136.127 42.43C135.635 43.09 134.891 43.528 133.895 43.744L137.045 49H135.083ZM130.115 42.556H132.527C133.415 42.556 134.081 42.34 134.525 41.908C134.969 41.464 135.191 40.876 135.191 40.144C135.191 39.4 134.969 38.824 134.525 38.416C134.093 38.008 133.427 37.804 132.527 37.804H130.115V42.556ZM146.557 49.126C145.393 49.126 144.331 48.856 143.371 48.316C142.411 47.764 141.649 47.002 141.085 46.03C140.533 45.046 140.257 43.942 140.257 42.718C140.257 41.494 140.533 40.396 141.085 39.424C141.649 38.44 142.411 37.678 143.371 37.138C144.331 36.586 145.393 36.31 146.557 36.31C147.733 36.31 148.801 36.586 149.761 37.138C150.721 37.678 151.477 38.434 152.029 39.406C152.581 40.378 152.857 41.482 152.857 42.718C152.857 43.954 152.581 45.058 152.029 46.03C151.477 47.002 150.721 47.764 149.761 48.316C148.801 48.856 147.733 49.126 146.557 49.126ZM146.557 47.704C147.433 47.704 148.219 47.5 148.915 47.092C149.623 46.684 150.175 46.102 150.571 45.346C150.979 44.59 151.183 43.714 151.183 42.718C151.183 41.71 150.979 40.834 150.571 40.09C150.175 39.334 149.629 38.752 148.933 38.344C148.237 37.936 147.445 37.732 146.557 37.732C145.669 37.732 144.877 37.936 144.181 38.344C143.485 38.752 142.933 39.334 142.525 40.09C142.129 40.834 141.931 41.71 141.931 42.718C141.931 43.714 142.129 44.59 142.525 45.346C142.933 46.102 143.485 46.684 144.181 47.092C144.889 47.5 145.681 47.704 146.557 47.704ZM158.097 36.454V49H156.459V36.454H158.097ZM166.235 36.454C167.603 36.454 168.785 36.712 169.781 37.228C170.789 37.732 171.557 38.458 172.085 39.406C172.625 40.354 172.895 41.47 172.895 42.754C172.895 44.038 172.625 45.154 172.085 46.102C171.557 47.038 170.789 47.758 169.781 48.262C168.785 48.754 167.603 49 166.235 49H162.329V36.454H166.235ZM166.235 47.65C167.855 47.65 169.091 47.224 169.943 46.372C170.795 45.508 171.221 44.302 171.221 42.754C171.221 41.194 170.789 39.976 169.925 39.1C169.073 38.224 167.843 37.786 166.235 37.786H163.967V47.65H166.235ZM178.133 37.786V41.98H182.705V43.33H178.133V47.65H183.245V49H176.495V36.436H183.245V37.786H178.133ZM193.77 49L190.782 43.87H188.802V49H187.164V36.454H191.214C192.162 36.454 192.96 36.616 193.608 36.94C194.268 37.264 194.76 37.702 195.084 38.254C195.408 38.806 195.57 39.436 195.57 40.144C195.57 41.008 195.318 41.77 194.814 42.43C194.322 43.09 193.578 43.528 192.582 43.744L195.732 49H193.77ZM188.802 42.556H191.214C192.102 42.556 192.768 42.34 193.212 41.908C193.656 41.464 193.878 40.876 193.878 40.144C193.878 39.4 193.656 38.824 193.212 38.416C192.78 38.008 192.114 37.804 191.214 37.804H188.802V42.556ZM208.339 36.454L204.253 44.266V49H202.615V44.266L198.511 36.454H200.329L203.425 42.808L206.521 36.454H208.339ZM233.514 36.454L229.878 49H228.042L225.126 38.902L222.102 49L220.284 49.018L216.774 36.454H218.52L221.256 47.092L224.28 36.454H226.116L228.996 47.056L231.75 36.454H233.514ZM242.434 49.126C241.27 49.126 240.208 48.856 239.248 48.316C238.288 47.764 237.526 47.002 236.962 46.03C236.41 45.046 236.134 43.942 236.134 42.718C236.134 41.494 236.41 40.396 236.962 39.424C237.526 38.44 238.288 37.678 239.248 37.138C240.208 36.586 241.27 36.31 242.434 36.31C243.61 36.31 244.678 36.586 245.638 37.138C246.598 37.678 247.354 38.434 247.906 39.406C248.458 40.378 248.734 41.482 248.734 42.718C248.734 43.954 248.458 45.058 247.906 46.03C247.354 47.002 246.598 47.764 245.638 48.316C244.678 48.856 243.61 49.126 242.434 49.126ZM242.434 47.704C243.31 47.704 244.096 47.5 244.792 47.092C245.5 46.684 246.052 46.102 246.448 45.346C246.856 44.59 247.06 43.714 247.06 42.718C247.06 41.71 246.856 40.834 246.448 40.09C246.052 39.334 245.506 38.752 244.81 38.344C244.114 37.936 243.322 37.732 242.434 37.732C241.546 37.732 240.754 37.936 240.058 38.344C239.362 38.752 238.81 39.334 238.402 40.09C238.006 40.834 237.808 41.71 237.808 42.718C237.808 43.714 238.006 44.59 238.402 45.346C238.81 46.102 239.362 46.684 240.058 47.092C240.766 47.5 241.558 47.704 242.434 47.704ZM258.942 49L255.954 43.87H253.974V49H252.336V36.454H256.386C257.334 36.454 258.132 36.616 258.78 36.94C259.44 37.264 259.932 37.702 260.256 38.254C260.58 38.806 260.742 39.436 260.742 40.144C260.742 41.008 260.49 41.77 259.986 42.43C259.494 43.09 258.75 43.528 257.754 43.744L260.904 49H258.942ZM253.974 42.556H256.386C257.274 42.556 257.94 42.34 258.384 41.908C258.828 41.464 259.05 40.876 259.05 40.144C259.05 39.4 258.828 38.824 258.384 38.416C257.952 38.008 257.286 37.804 256.386 37.804H253.974V42.556ZM271.532 49L266.366 43.276V49H264.728V36.454H266.366V42.268L271.55 36.454H273.62L267.932 42.736L273.674 49H271.532ZM280.921 49.126C280.093 49.126 279.349 48.982 278.689 48.694C278.041 48.394 277.531 47.986 277.159 47.47C276.787 46.942 276.595 46.336 276.583 45.652H278.329C278.389 46.24 278.629 46.738 279.049 47.146C279.481 47.542 280.105 47.74 280.921 47.74C281.701 47.74 282.313 47.548 282.757 47.164C283.213 46.768 283.441 46.264 283.441 45.652C283.441 45.172 283.309 44.782 283.045 44.482C282.781 44.182 282.451 43.954 282.055 43.798C281.659 43.642 281.125 43.474 280.453 43.294C279.625 43.078 278.959 42.862 278.455 42.646C277.963 42.43 277.537 42.094 277.177 41.638C276.829 41.17 276.655 40.546 276.655 39.766C276.655 39.082 276.829 38.476 277.177 37.948C277.525 37.42 278.011 37.012 278.635 36.724C279.271 36.436 279.997 36.292 280.813 36.292C281.989 36.292 282.949 36.586 283.693 37.174C284.449 37.762 284.875 38.542 284.971 39.514H283.171C283.111 39.034 282.859 38.614 282.415 38.254C281.971 37.882 281.383 37.696 280.651 37.696C279.967 37.696 279.409 37.876 278.977 38.236C278.545 38.584 278.329 39.076 278.329 39.712C278.329 40.168 278.455 40.54 278.707 40.828C278.971 41.116 279.289 41.338 279.661 41.494C280.045 41.638 280.579 41.806 281.263 41.998C282.091 42.226 282.757 42.454 283.261 42.682C283.765 42.898 284.197 43.24 284.557 43.708C284.917 44.164 285.097 44.788 285.097 45.58C285.097 46.192 284.935 46.768 284.611 47.308C284.287 47.848 283.807 48.286 283.171 48.622C282.535 48.958 281.785 49.126 280.921 49.126Z" fill="#B150D6"/>
</svg>
